# xmcd
#
# Track frame offsets:
#	150
#	19574
#	36456
#	62546
#	85067
#	103728
#	133509
#	158461
#	179725
#	209346
#	226555
#	247581
#
# Disc length: 3609 seconds
#
# Revision: 1
# Processed by: cddbd v1.5.2PL0 Copyright (c) Steve Scherf et al.
# Submitted via: EZCDAudioConverter 8.0.2.1
#
DISCID=8b0e170c
DTITLE=Various Artist - st. Phú Quang. Lãng Đãng Chiều Đông Hà Nội
DYEAR=2001
DGENRE=Contemporary Pop
TTITLE0=NSND Lê Dung - Thương lắm tóc dài ơi
TTITLE1=Nhã Phương - Muộn
TTITLE2=Mỹ Linh - Đâu phải bởi mùa thu
TTITLE3=Thanh Long Bass - Chiều hoang
TTITLE4=Thanh Lam - Nỗi nhớ
TTITLE5=Mỹ Linh - Chiều đông Maskova
TTITLE6=Mỹ Linh - Em ơi! Hà Nội Phố
TTITLE7=Thanh Long Bass - Thế rồi...
TTITLE8=NSND Lê Dung - Lãng Đãng Chiều Đông Hà Nội
TTITLE9=NSND Lê Dung - Chiều đông Paris
TTITLE10=Trần Thu Hà - Điều giản dị
TTITLE11=Bảo Yến - Giọt thu buồn
EXTD=
EXTT0=
EXTT1=
EXTT2=
EXTT3=
EXTT4=
EXTT5=
EXTT6=
EXTT7=
EXTT8=
EXTT9=
EXTT10=
EXTT11=
PLAYORDER=
